<svg xmlns="http://www.w3.org/2000/svg" version="1.1" xmlns:xlink="http://www.w3.org/1999/xlink" xmlns:svgjs="http://svgjs.com/svgjs" width="1920" height="1080" preserveAspectRatio="none" viewBox="0 0 1920 1080"><g mask="url(&quot;#SvgjsMask1015&quot;)" fill="none"><path d="M1768.42 640.09L1768.42 645.06L1784.84 645.06L1784.84 640.09zM1776.04 642.57 a8.8 8.8 0 1 0 17.6 0 a8.8 8.8 0 1 0 -17.6 0zM1762.14 676.59L1760.24 681.18L1772.75 686.36L1774.65 681.77zM1764.9 684.07 a8.8 8.8 0 1 0 17.6 0 a8.8 8.8 0 1 0 -17.6 0zM1742.38 707.91L1738.87 711.43L1764.04 736.6L1767.55 733.09zM1757 734.84 a8.8 8.8 0 1 0 17.6 0 a8.8 8.8 0 1 0 -17.6 0zM1712.13 729.29L1707.54 731.19L1722.06 766.23L1726.65 764.33zM1715.55 765.28 a8.8 8.8 0 1 0 17.6 0 a8.8 8.8 0 1 0 -17.6 0zM1676.01 737.46L1671.04 737.46L1671.04 780.71L1676.01 780.71zM1664.72 780.71 a8.8 8.8 0 1 0 17.6 0 a8.8 8.8 0 1 0 -17.6 0zM1639.51 731.19L1634.91 729.29L1628.75 744.18L1633.34 746.09zM1622.24 745.13 a8.8 8.8 0 1 0 17.6 0 a8.8 8.8 0 1 0 -17.6 0zM1608.18 711.43L1604.67 707.91L1577.2 735.39L1580.71 738.9zM1570.15 737.14 a8.8 8.8 0 1 0 17.6 0 a8.8 8.8 0 1 0 -17.6 0zM1586.81 681.18L1584.9 676.59L1571.32 682.22L1573.22 686.81zM1563.47 684.51 a8.8 8.8 0 1 0 17.6 0 a8.8 8.8 0 1 0 -17.6 0zM1578.63 645.06L1578.63 640.09L1535.56 640.09L1535.56 645.06zM1526.76 642.57 a8.8 8.8 0 1 0 17.6 0 a8.8 8.8 0 1 0 -17.6 0zM1584.9 608.55L1586.81 603.96L1550.82 589.06L1548.92 593.65zM1541.07 591.35 a8.8 8.8 0 1 0 17.6 0 a8.8 8.8 0 1 0 -17.6 0zM1604.67 577.23L1608.18 573.72L1598.86 564.39L1595.34 567.9zM1588.3 566.15 a8.8 8.8 0 1 0 17.6 0 a8.8 8.8 0 1 0 -17.6 0zM1634.91 555.85L1639.51 553.95L1632.15 536.2L1627.56 538.11zM1621.06 537.16 a8.8 8.8 0 1 0 17.6 0 a8.8 8.8 0 1 0 -17.6 0zM1671.04 547.68L1676.01 547.68L1676.01 530.53L1671.04 530.53zM1664.72 530.53 a8.8 8.8 0 1 0 17.6 0 a8.8 8.8 0 1 0 -17.6 0zM1707.54 553.95L1712.13 555.85L1717.61 542.62L1713.02 540.72zM1706.52 541.67 a8.8 8.8 0 1 0 17.6 0 a8.8 8.8 0 1 0 -17.6 0zM1738.87 573.72L1742.38 577.23L1766.99 552.62L1763.47 549.11zM1756.43 550.87 a8.8 8.8 0 1 0 17.6 0 a8.8 8.8 0 1 0 -17.6 0zM1760.24 603.96L1762.14 608.55L1803.59 591.39L1801.69 586.8zM1793.84 589.09 a8.8 8.8 0 1 0 17.6 0 a8.8 8.8 0 1 0 -17.6 0zM1578.6 642.57 a94.92 94.92 0 1 0 189.84 0 a94.92 94.92 0 1 0 -189.84 0z" fill="rgba(128, 189, 184, 1)"></path><path d="M1597.51 699.43 A93.92479999999999 93.92479999999999 0 0 1 1662.09 548.34M1662.09 548.34 A189.84959999999998 189.84959999999998 0 0 0 1597.51 699.43" fill="#57a7a0" fill-rule="nonzero"></path><path d="M1677.9 637.06 a18.98 18.98 0 1 0 37.96 0 a18.98 18.98 0 1 0 -37.96 0zM1624.34 578.41 a18.98 18.98 0 1 0 37.96 0 a18.98 18.98 0 1 0 -37.96 0zM1632.38 693.24 a18.98 18.98 0 1 0 37.96 0 a18.98 18.98 0 1 0 -37.96 0zM1578.62 641.87 a3.8 3.8 0 1 0 7.6 0 a3.8 3.8 0 1 0 -7.6 0zM1648.57 626.12 a5.7 5.7 0 1 0 11.4 0 a5.7 5.7 0 1 0 -11.4 0zM1687.44 706.08 a4.75 4.75 0 1 0 9.5 0 a4.75 4.75 0 1 0 -9.5 0zM1629.56 650.02 a5.7 5.7 0 1 0 11.4 0 a5.7 5.7 0 1 0 -11.4 0zM1692.78 590.43 a8.54 8.54 0 1 0 17.08 0 a8.54 8.54 0 1 0 -17.08 0zM1715.34 699.89 a5.7 5.7 0 1 0 11.4 0 a5.7 5.7 0 1 0 -11.4 0zM1751.5 658.71 a7.59 7.59 0 1 0 15.18 0 a7.59 7.59 0 1 0 -15.18 0z" fill="#57a7a0" fill-rule="nonzero"></path><path d="M577.56 258.07L577.56 263.04L622.76 263.04L622.76 258.07zM613.96 260.56 a8.8 8.8 0 1 0 17.6 0 a8.8 8.8 0 1 0 -17.6 0zM571.29 294.57L569.39 299.17L599.04 311.45L600.94 306.85zM591.19 309.15 a8.8 8.8 0 1 0 17.6 0 a8.8 8.8 0 1 0 -17.6 0zM551.53 325.9L548.01 329.41L569.21 350.6L572.72 347.09zM562.16 348.85 a8.8 8.8 0 1 0 17.6 0 a8.8 8.8 0 1 0 -17.6 0zM521.28 347.27L516.69 349.18L534.22 391.51L538.82 389.61zM527.72 390.56 a8.8 8.8 0 1 0 17.6 0 a8.8 8.8 0 1 0 -17.6 0zM485.16 355.45L480.19 355.45L480.19 392.81L485.16 392.81zM473.87 392.81 a8.8 8.8 0 1 0 17.6 0 a8.8 8.8 0 1 0 -17.6 0zM448.65 349.18L444.06 347.27L436.33 365.94L440.92 367.84zM429.83 366.89 a8.8 8.8 0 1 0 17.6 0 a8.8 8.8 0 1 0 -17.6 0zM417.33 329.41L413.82 325.9L386.71 353L390.23 356.52zM379.67 354.76 a8.8 8.8 0 1 0 17.6 0 a8.8 8.8 0 1 0 -17.6 0zM395.95 299.17L394.05 294.57L365.6 306.36L367.5 310.95zM357.75 308.66 a8.8 8.8 0 1 0 17.6 0 a8.8 8.8 0 1 0 -17.6 0zM387.78 263.04L387.78 258.07L357.43 258.07L357.43 263.04zM348.63 260.56 a8.8 8.8 0 1 0 17.6 0 a8.8 8.8 0 1 0 -17.6 0zM394.05 226.54L395.95 221.95L379.48 215.12L377.58 219.71zM369.73 217.42 a8.8 8.8 0 1 0 17.6 0 a8.8 8.8 0 1 0 -17.6 0zM413.82 195.21L417.33 191.7L395 169.37L391.49 172.88zM384.44 171.13 a8.8 8.8 0 1 0 17.6 0 a8.8 8.8 0 1 0 -17.6 0zM444.06 173.84L448.65 171.94L433.27 134.79L428.67 136.69zM422.17 135.74 a8.8 8.8 0 1 0 17.6 0 a8.8 8.8 0 1 0 -17.6 0zM480.19 165.66L485.16 165.66L485.16 132.32L480.19 132.32zM473.87 132.32 a8.8 8.8 0 1 0 17.6 0 a8.8 8.8 0 1 0 -17.6 0zM516.69 171.94L521.28 173.84L529.19 154.74L524.6 152.84zM518.1 153.79 a8.8 8.8 0 1 0 17.6 0 a8.8 8.8 0 1 0 -17.6 0zM548.01 191.7L551.53 195.21L573.52 173.22L570 169.71zM562.96 171.47 a8.8 8.8 0 1 0 17.6 0 a8.8 8.8 0 1 0 -17.6 0zM569.39 221.95L571.29 226.54L602.97 213.42L601.07 208.82zM593.22 211.12 a8.8 8.8 0 1 0 17.6 0 a8.8 8.8 0 1 0 -17.6 0zM387.75 260.56 a94.92 94.92 0 1 0 189.84 0 a94.92 94.92 0 1 0 -189.84 0z" fill="rgba(128, 189, 184, 1)"></path><path d="M517.28 348.95 A93.92479999999999 93.92479999999999 0 0 1 388.79 246.53M388.79 246.53 A189.84959999999998 189.84959999999998 0 0 0 517.28 348.95" fill="#57a7a0" fill-rule="nonzero"></path><path d="M519.3 337.09 a6.64 6.64 0 1 0 13.28 0 a6.64 6.64 0 1 0 -13.28 0zM539.32 237.3 a17.09 17.09 0 1 0 34.18 0 a17.09 17.09 0 1 0 -34.18 0zM462.79 242.17 a18.98 18.98 0 1 0 37.96 0 a18.98 18.98 0 1 0 -37.96 0zM405.62 216.48 a18.98 18.98 0 1 0 37.96 0 a18.98 18.98 0 1 0 -37.96 0zM476.08 302.47 a18.98 18.98 0 1 0 37.96 0 a18.98 18.98 0 1 0 -37.96 0zM543.29 316.23 a4.75 4.75 0 1 0 9.5 0 a4.75 4.75 0 1 0 -9.5 0zM425.5 333.55 a3.8 3.8 0 1 0 7.6 0 a3.8 3.8 0 1 0 -7.6 0zM468.58 193.47 a10.44 10.44 0 1 0 20.88 0 a10.44 10.44 0 1 0 -20.88 0zM508.12 177.42 a5.7 5.7 0 1 0 11.4 0 a5.7 5.7 0 1 0 -11.4 0zM414.48 289.8 a18.98 18.98 0 1 0 37.96 0 a18.98 18.98 0 1 0 -37.96 0z" fill="#57a7a0" fill-rule="nonzero"></path><path d="M860.04 788.01L860.04 792.98L902.68 792.98L902.68 788.01zM893.88 790.49 a8.8 8.8 0 1 0 17.6 0 a8.8 8.8 0 1 0 -17.6 0zM853.76 824.51L851.86 829.1L873.29 837.98L875.19 833.38zM865.44 835.68 a8.8 8.8 0 1 0 17.6 0 a8.8 8.8 0 1 0 -17.6 0zM834 855.83L830.49 859.35L850.03 878.89L853.55 875.38zM842.99 877.13 a8.8 8.8 0 1 0 17.6 0 a8.8 8.8 0 1 0 -17.6 0zM803.75 877.21L799.16 879.11L816.88 921.9L821.48 919.99zM810.38 920.95 a8.8 8.8 0 1 0 17.6 0 a8.8 8.8 0 1 0 -17.6 0zM767.63 885.38L762.66 885.38L762.66 898.69L767.63 898.69zM756.34 898.69 a8.8 8.8 0 1 0 17.6 0 a8.8 8.8 0 1 0 -17.6 0zM731.13 879.11L726.54 877.21L717.55 898.91L722.14 900.81zM711.04 899.86 a8.8 8.8 0 1 0 17.6 0 a8.8 8.8 0 1 0 -17.6 0zM699.8 859.35L696.29 855.83L673.89 878.23L677.4 881.75zM666.84 879.99 a8.8 8.8 0 1 0 17.6 0 a8.8 8.8 0 1 0 -17.6 0zM678.43 829.1L676.52 824.51L654.46 833.65L656.36 838.24zM646.61 835.94 a8.8 8.8 0 1 0 17.6 0 a8.8 8.8 0 1 0 -17.6 0zM670.25 792.98L670.25 788.01L641.35 788.01L641.35 792.98zM632.55 790.49 a8.8 8.8 0 1 0 17.6 0 a8.8 8.8 0 1 0 -17.6 0zM676.52 756.47L678.43 751.88L645.42 738.21L643.51 742.8zM635.67 740.5 a8.8 8.8 0 1 0 17.6 0 a8.8 8.8 0 1 0 -17.6 0zM696.29 725.15L699.8 721.64L677.61 699.44L674.09 702.95zM667.05 701.2 a8.8 8.8 0 1 0 17.6 0 a8.8 8.8 0 1 0 -17.6 0zM726.54 703.77L731.13 701.87L722.8 681.77L718.21 683.67zM711.7 682.72 a8.8 8.8 0 1 0 17.6 0 a8.8 8.8 0 1 0 -17.6 0zM762.66 695.6L767.63 695.6L767.63 667.7L762.66 667.7zM756.34 667.7 a8.8 8.8 0 1 0 17.6 0 a8.8 8.8 0 1 0 -17.6 0zM799.16 701.87L803.75 703.77L819.4 666L814.81 664.09zM808.31 665.04 a8.8 8.8 0 1 0 17.6 0 a8.8 8.8 0 1 0 -17.6 0zM830.49 721.64L834 725.15L858.72 700.43L855.21 696.91zM848.16 698.67 a8.8 8.8 0 1 0 17.6 0 a8.8 8.8 0 1 0 -17.6 0zM851.86 751.88L853.76 756.47L873.51 748.3L871.61 743.7zM863.76 746 a8.8 8.8 0 1 0 17.6 0 a8.8 8.8 0 1 0 -17.6 0zM670.22 790.49 a94.92 94.92 0 1 0 189.84 0 a94.92 94.92 0 1 0 -189.84 0z" fill="rgba(128, 189, 184, 1)"></path><path d="M858.42 772.87 A93.92479999999999 93.92479999999999 0 0 1 733.96 880.15M733.96 880.15 A189.84959999999998 189.84959999999998 0 0 0 858.42 772.87" fill="#57a7a0" fill-rule="nonzero"></path><path d="M743.95 711.5 a15.19 15.19 0 1 0 30.38 0 a15.19 15.19 0 1 0 -30.38 0zM784.3 822.46 a18.98 18.98 0 1 0 37.96 0 a18.98 18.98 0 1 0 -37.96 0zM678.43 801.26 a18.98 18.98 0 1 0 37.96 0 a18.98 18.98 0 1 0 -37.96 0zM688.34 739.85 a14.24 14.24 0 1 0 28.48 0 a14.24 14.24 0 1 0 -28.48 0zM733.18 817.55 a13.29 13.29 0 1 0 26.58 0 a13.29 13.29 0 1 0 -26.58 0zM814.8 765.96 a18.98 18.98 0 1 0 37.96 0 a18.98 18.98 0 1 0 -37.96 0zM755.33 852.31 a4.75 4.75 0 1 0 9.5 0 a4.75 4.75 0 1 0 -9.5 0zM728.53 764.6 a7.59 7.59 0 1 0 15.18 0 a7.59 7.59 0 1 0 -15.18 0zM725.37 869.11 a7.59 7.59 0 1 0 15.18 0 a7.59 7.59 0 1 0 -15.18 0zM815.85 723.94 a5.7 5.7 0 1 0 11.4 0 a5.7 5.7 0 1 0 -11.4 0z" fill="#57a7a0" fill-rule="nonzero"></path><path d="M296.46 650.88L296.46 655.85L317.12 655.85L317.12 650.88zM308.32 653.36 a8.8 8.8 0 1 0 17.6 0 a8.8 8.8 0 1 0 -17.6 0zM290.19 687.38L288.28 691.97L314.03 702.64L315.94 698.04zM306.18 700.34 a8.8 8.8 0 1 0 17.6 0 a8.8 8.8 0 1 0 -17.6 0zM270.42 718.7L266.91 722.22L281.76 737.07L285.28 733.56zM274.72 735.32 a8.8 8.8 0 1 0 17.6 0 a8.8 8.8 0 1 0 -17.6 0zM240.18 740.08L235.58 741.98L247.96 771.87L252.56 769.97zM241.46 770.92 a8.8 8.8 0 1 0 17.6 0 a8.8 8.8 0 1 0 -17.6 0zM204.05 748.25L199.08 748.25L199.08 780.26L204.05 780.26zM192.77 780.26 a8.8 8.8 0 1 0 17.6 0 a8.8 8.8 0 1 0 -17.6 0zM167.55 741.98L162.96 740.08L149.41 772.78L154 774.69zM142.91 773.73 a8.8 8.8 0 1 0 17.6 0 a8.8 8.8 0 1 0 -17.6 0zM136.22 722.22L132.71 718.7L116.79 734.62L120.31 738.13zM109.75 736.38 a8.8 8.8 0 1 0 17.6 0 a8.8 8.8 0 1 0 -17.6 0zM114.85 691.97L112.95 687.38L75.49 702.89L77.39 707.48zM67.64 705.19 a8.8 8.8 0 1 0 17.6 0 a8.8 8.8 0 1 0 -17.6 0zM106.67 655.85L106.67 650.88L88.13 650.88L88.13 655.85zM79.33 653.36 a8.8 8.8 0 1 0 17.6 0 a8.8 8.8 0 1 0 -17.6 0zM112.95 619.34L114.85 614.75L93.87 606.06L91.97 610.65zM84.12 608.36 a8.8 8.8 0 1 0 17.6 0 a8.8 8.8 0 1 0 -17.6 0zM132.71 588.02L136.22 584.5L114.76 563.04L111.25 566.56zM104.21 564.8 a8.8 8.8 0 1 0 17.6 0 a8.8 8.8 0 1 0 -17.6 0zM162.96 566.64L167.55 564.74L156.75 538.67L152.16 540.57zM145.65 539.62 a8.8 8.8 0 1 0 17.6 0 a8.8 8.8 0 1 0 -17.6 0zM199.08 558.47L204.05 558.47L204.05 531.46L199.08 531.46zM192.77 531.46 a8.8 8.8 0 1 0 17.6 0 a8.8 8.8 0 1 0 -17.6 0zM235.58 564.74L240.18 566.64L252.02 538.06L247.42 536.16zM240.92 537.11 a8.8 8.8 0 1 0 17.6 0 a8.8 8.8 0 1 0 -17.6 0zM266.91 584.5L270.42 588.02L287.74 570.7L284.23 567.19zM277.18 568.94 a8.8 8.8 0 1 0 17.6 0 a8.8 8.8 0 1 0 -17.6 0zM288.28 614.75L290.19 619.34L312.79 609.98L310.89 605.39zM303.04 607.68 a8.8 8.8 0 1 0 17.6 0 a8.8 8.8 0 1 0 -17.6 0zM106.65 653.36 a94.92 94.92 0 1 0 189.84 0 a94.92 94.92 0 1 0 -189.84 0z" fill="rgba(128, 189, 184, 1)"></path><path d="M218.36 746.79 A93.92479999999999 93.92479999999999 0 0 1 112.19 621.38M112.19 621.38 A189.84959999999998 189.84959999999998 0 0 0 218.36 746.79" fill="#57a7a0" fill-rule="nonzero"></path><path d="M126.94 699.13 a18.98 18.98 0 1 0 37.96 0 a18.98 18.98 0 1 0 -37.96 0zM255.1 655.47 a18.98 18.98 0 1 0 37.96 0 a18.98 18.98 0 1 0 -37.96 0zM202.59 679.34 a18.98 18.98 0 1 0 37.96 0 a18.98 18.98 0 1 0 -37.96 0zM157.87 589.41 a18.98 18.98 0 1 0 37.96 0 a18.98 18.98 0 1 0 -37.96 0zM238.01 613.79 a10.44 10.44 0 1 0 20.88 0 a10.44 10.44 0 1 0 -20.88 0zM144.37 628.25 a7.59 7.59 0 1 0 15.18 0 a7.59 7.59 0 1 0 -15.18 0zM108.2 642.58 a4.75 4.75 0 1 0 9.5 0 a4.75 4.75 0 1 0 -9.5 0zM190.04 638.39 a8.54 8.54 0 1 0 17.08 0 a8.54 8.54 0 1 0 -17.08 0zM183.12 707.23 a4.75 4.75 0 1 0 9.5 0 a4.75 4.75 0 1 0 -9.5 0zM255.11 699.49 a4.75 4.75 0 1 0 9.5 0 a4.75 4.75 0 1 0 -9.5 0z" fill="#57a7a0" fill-rule="nonzero"></path><path d="M1165.98 688.27L1165.98 691.37L1175.41 691.37L1175.41 688.27zM1169.91 689.82 a5.5 5.5 0 1 0 11 0 a5.5 5.5 0 1 0 -11 0zM1162.06 711.08L1160.87 713.95L1182.84 723.05L1184.03 720.18zM1177.93 721.62 a5.5 5.5 0 1 0 11 0 a5.5 5.5 0 1 0 -11 0zM1149.7 730.66L1147.51 732.85L1161.16 746.51L1163.36 744.31zM1156.76 745.41 a5.5 5.5 0 1 0 11 0 a5.5 5.5 0 1 0 -11 0zM1130.8 744.02L1127.93 745.21L1131.51 753.84L1134.38 752.65zM1127.44 753.24 a5.5 5.5 0 1 0 11 0 a5.5 5.5 0 1 0 -11 0zM1108.22 749.13L1105.12 749.13L1105.12 772.21L1108.22 772.21zM1101.17 772.21 a5.5 5.5 0 1 0 11 0 a5.5 5.5 0 1 0 -11 0zM1085.41 745.21L1082.54 744.02L1078.81 753.02L1081.68 754.21zM1074.75 753.61 a5.5 5.5 0 1 0 11 0 a5.5 5.5 0 1 0 -11 0zM1065.83 732.85L1063.63 730.66L1055.39 738.9L1057.59 741.1zM1050.99 740 a5.5 5.5 0 1 0 11 0 a5.5 5.5 0 1 0 -11 0zM1052.47 713.95L1051.28 711.08L1043.02 714.5L1044.21 717.37zM1038.12 715.94 a5.5 5.5 0 1 0 11 0 a5.5 5.5 0 1 0 -11 0zM1047.36 691.37L1047.36 688.27L1037.47 688.27L1037.47 691.37zM1031.97 689.82 a5.5 5.5 0 1 0 11 0 a5.5 5.5 0 1 0 -11 0zM1051.28 668.56L1052.47 665.69L1032.15 657.27L1030.97 660.14zM1026.06 658.71 a5.5 5.5 0 1 0 11 0 a5.5 5.5 0 1 0 -11 0zM1063.63 648.98L1065.83 646.78L1051.22 632.18L1049.03 634.37zM1044.62 633.27 a5.5 5.5 0 1 0 11 0 a5.5 5.5 0 1 0 -11 0zM1082.54 635.62L1085.41 634.43L1077.42 615.14L1074.55 616.33zM1070.48 615.74 a5.5 5.5 0 1 0 11 0 a5.5 5.5 0 1 0 -11 0zM1105.12 630.51L1108.22 630.51L1108.22 613.99L1105.12 613.99zM1101.17 613.99 a5.5 5.5 0 1 0 11 0 a5.5 5.5 0 1 0 -11 0zM1127.93 634.43L1130.8 635.62L1138.53 616.96L1135.66 615.77zM1131.6 616.36 a5.5 5.5 0 1 0 11 0 a5.5 5.5 0 1 0 -11 0zM1147.51 646.78L1149.7 648.98L1157 641.69L1154.8 639.49zM1150.4 640.59 a5.5 5.5 0 1 0 11 0 a5.5 5.5 0 1 0 -11 0zM1160.87 665.69L1162.06 668.56L1179.49 661.34L1178.3 658.47zM1173.4 659.9 a5.5 5.5 0 1 0 11 0 a5.5 5.5 0 1 0 -11 0zM1047.34 689.82 a59.33 59.33 0 1 0 118.66 0 a59.33 59.33 0 1 0 -118.66 0z" fill="rgba(128, 189, 184, 1)"></path><path d="M1052.97 664.6 A58.328 58.328 0 0 1 1155.29 655.82M1155.29 655.82 A118.656 118.656 0 0 0 1052.97 664.6" fill="#57a7a0" fill-rule="nonzero"></path><path d="M1143.92 662.7 a7.12 7.12 0 1 0 14.24 0 a7.12 7.12 0 1 0 -14.24 0zM1061.72 713.38 a11.87 11.87 0 1 0 23.74 0 a11.87 11.87 0 1 0 -23.74 0zM1113.07 738.38 a8.31 8.31 0 1 0 16.62 0 a8.31 8.31 0 1 0 -16.62 0zM1087.51 649.16 a11.87 11.87 0 1 0 23.74 0 a11.87 11.87 0 1 0 -23.74 0zM1071.65 670.98 a6.53 6.53 0 1 0 13.06 0 a6.53 6.53 0 1 0 -13.06 0zM1139.69 696.24 a11.87 11.87 0 1 0 23.74 0 a11.87 11.87 0 1 0 -23.74 0zM1096.67 720.32 a3.56 3.56 0 1 0 7.12 0 a3.56 3.56 0 1 0 -7.12 0zM1114.08 712.69 a2.37 2.37 0 1 0 4.74 0 a2.37 2.37 0 1 0 -4.74 0zM1048.98 676.59 a2.37 2.37 0 1 0 4.74 0 a2.37 2.37 0 1 0 -4.74 0zM1124.53 672.79 a4.75 4.75 0 1 0 9.5 0 a4.75 4.75 0 1 0 -9.5 0z" fill="#57a7a0" fill-rule="nonzero"></path><path d="M1491.78 930.06L1491.78 934.41L1531.45 934.41L1531.45 930.06zM1523.75 932.24 a7.7 7.7 0 1 0 15.4 0 a7.7 7.7 0 1 0 -15.4 0zM1486.29 962L1484.63 966.02L1509.49 976.32L1511.15 972.3zM1502.62 974.31 a7.7 7.7 0 1 0 15.4 0 a7.7 7.7 0 1 0 -15.4 0zM1469 989.41L1465.92 992.48L1475.25 1001.81L1478.33 998.74zM1469.09 1000.27 a7.7 7.7 0 1 0 15.4 0 a7.7 7.7 0 1 0 -15.4 0zM1442.53 1008.11L1438.52 1009.78L1449.95 1037.38L1453.97 1035.72zM1444.26 1036.55 a7.7 7.7 0 1 0 15.4 0 a7.7 7.7 0 1 0 -15.4 0zM1410.92 1015.27L1406.58 1015.27L1406.58 1040.41L1410.92 1040.41zM1401.05 1040.41 a7.7 7.7 0 1 0 15.4 0 a7.7 7.7 0 1 0 -15.4 0zM1378.98 1009.78L1374.97 1008.11L1367.59 1025.93L1371.61 1027.59zM1361.9 1026.76 a7.7 7.7 0 1 0 15.4 0 a7.7 7.7 0 1 0 -15.4 0zM1351.58 992.48L1348.5 989.41L1340.23 997.68L1343.3 1000.76zM1334.07 999.22 a7.7 7.7 0 1 0 15.4 0 a7.7 7.7 0 1 0 -15.4 0zM1332.87 966.02L1331.21 962L1317.4 967.72L1319.06 971.74zM1310.53 969.73 a7.7 7.7 0 1 0 15.4 0 a7.7 7.7 0 1 0 -15.4 0zM1325.72 934.41L1325.72 930.06L1290.12 930.06L1290.12 934.41zM1282.42 932.24 a7.7 7.7 0 1 0 15.4 0 a7.7 7.7 0 1 0 -15.4 0zM1331.21 902.47L1332.87 898.45L1298.44 884.19L1296.78 888.21zM1289.91 886.2 a7.7 7.7 0 1 0 15.4 0 a7.7 7.7 0 1 0 -15.4 0zM1348.5 875.06L1351.58 871.99L1336.11 856.52L1333.04 859.6zM1326.87 858.06 a7.7 7.7 0 1 0 15.4 0 a7.7 7.7 0 1 0 -15.4 0zM1374.97 856.36L1378.98 854.69L1371.5 836.61L1367.48 838.28zM1361.79 837.44 a7.7 7.7 0 1 0 15.4 0 a7.7 7.7 0 1 0 -15.4 0zM1406.58 849.2L1410.92 849.2L1410.92 824.67L1406.58 824.67zM1401.05 824.67 a7.7 7.7 0 1 0 15.4 0 a7.7 7.7 0 1 0 -15.4 0zM1438.52 854.69L1442.53 856.36L1455.53 824.98L1451.51 823.32zM1445.82 824.15 a7.7 7.7 0 1 0 15.4 0 a7.7 7.7 0 1 0 -15.4 0zM1465.92 871.99L1469 875.06L1488.01 856.05L1484.93 852.98zM1478.77 854.52 a7.7 7.7 0 1 0 15.4 0 a7.7 7.7 0 1 0 -15.4 0zM1484.63 898.45L1486.29 902.47L1502.65 895.7L1500.98 891.68zM1494.11 893.69 a7.7 7.7 0 1 0 15.4 0 a7.7 7.7 0 1 0 -15.4 0zM1325.69 932.24 a83.06 83.06 0 1 0 166.12 0 a83.06 83.06 0 1 0 -166.12 0z" fill="rgba(128, 189, 184, 1)"></path><path d="M1445.16 1006.89 A82.0592 82.0592 0 0 1 1325.88 926.62M1325.88 926.62 A166.1184 166.1184 0 0 0 1445.16 1006.89" fill="#57a7a0" fill-rule="nonzero"></path><path d="M1479.63 916.19 a4.98 4.98 0 1 0 9.96 0 a4.98 4.98 0 1 0 -9.96 0zM1456.44 946.6 a12.46 12.46 0 1 0 24.92 0 a12.46 12.46 0 1 0 -24.92 0zM1451.33 902.42 a7.48 7.48 0 1 0 14.96 0 a7.48 7.48 0 1 0 -14.96 0zM1394.29 930.41 a16.61 16.61 0 1 0 33.22 0 a16.61 16.61 0 1 0 -33.22 0zM1326.52 942.56 a5.81 5.81 0 1 0 11.62 0 a5.81 5.81 0 1 0 -11.62 0zM1364.79 903.07 a10.8 10.8 0 1 0 21.6 0 a10.8 10.8 0 1 0 -21.6 0zM1349.62 959.86 a5.81 5.81 0 1 0 11.62 0 a5.81 5.81 0 1 0 -11.62 0zM1365.15 867.56 a7.48 7.48 0 1 0 14.96 0 a7.48 7.48 0 1 0 -14.96 0zM1376.76 967.6 a4.98 4.98 0 1 0 9.96 0 a4.98 4.98 0 1 0 -9.96 0zM1398.07 1007.39 a7.48 7.48 0 1 0 14.96 0 a7.48 7.48 0 1 0 -14.96 0z" fill="#57a7a0" fill-rule="nonzero"></path><path d="M1864.14 952.29L1864.14 954.78L1886 954.78L1886 952.29zM1881.6 953.53 a4.4 4.4 0 1 0 8.8 0 a4.4 4.4 0 1 0 -8.8 0zM1861.01 970.54L1860.06 972.84L1881.24 981.61L1882.19 979.32zM1877.32 980.47 a4.4 4.4 0 1 0 8.8 0 a4.4 4.4 0 1 0 -8.8 0zM1851.13 986.21L1849.37 987.96L1864.7 1003.29L1866.46 1001.54zM1861.18 1002.41 a4.4 4.4 0 1 0 8.8 0 a4.4 4.4 0 1 0 -8.8 0zM1836 996.89L1833.71 997.84L1837.4 1006.76L1839.7 1005.81zM1834.15 1006.28 a4.4 4.4 0 1 0 8.8 0 a4.4 4.4 0 1 0 -8.8 0zM1817.94 1000.98L1815.46 1000.98L1815.46 1008.52L1817.94 1008.52zM1812.3 1008.52 a4.4 4.4 0 1 0 8.8 0 a4.4 4.4 0 1 0 -8.8 0zM1799.69 997.84L1797.39 996.89L1790.06 1014.6L1792.35 1015.56zM1786.8 1015.08 a4.4 4.4 0 1 0 8.8 0 a4.4 4.4 0 1 0 -8.8 0zM1784.03 987.96L1782.27 986.21L1768.5 999.98L1770.25 1001.74zM1764.97 1000.86 a4.4 4.4 0 1 0 8.8 0 a4.4 4.4 0 1 0 -8.8 0zM1773.34 972.84L1772.39 970.54L1751.26 979.3L1752.21 981.59zM1747.33 980.44 a4.4 4.4 0 1 0 8.8 0 a4.4 4.4 0 1 0 -8.8 0zM1769.25 954.78L1769.25 952.29L1748.55 952.29L1748.55 954.78zM1744.15 953.53 a4.4 4.4 0 1 0 8.8 0 a4.4 4.4 0 1 0 -8.8 0zM1772.39 936.53L1773.34 934.23L1765.35 930.92L1764.4 933.22zM1760.47 932.07 a4.4 4.4 0 1 0 8.8 0 a4.4 4.4 0 1 0 -8.8 0zM1782.27 920.86L1784.03 919.11L1774.7 909.78L1772.94 911.54zM1769.42 910.66 a4.4 4.4 0 1 0 8.8 0 a4.4 4.4 0 1 0 -8.8 0zM1797.39 910.18L1799.69 909.23L1795.9 900.07L1793.6 901.02zM1790.35 900.54 a4.4 4.4 0 1 0 8.8 0 a4.4 4.4 0 1 0 -8.8 0zM1815.46 906.09L1817.94 906.09L1817.94 897.11L1815.46 897.11zM1812.3 897.11 a4.4 4.4 0 1 0 8.8 0 a4.4 4.4 0 1 0 -8.8 0zM1833.71 909.23L1836 910.18L1839.11 902.67L1836.81 901.72zM1833.56 902.2 a4.4 4.4 0 1 0 8.8 0 a4.4 4.4 0 1 0 -8.8 0zM1849.37 919.11L1851.13 920.86L1859.89 912.1L1858.13 910.35zM1854.61 911.22 a4.4 4.4 0 1 0 8.8 0 a4.4 4.4 0 1 0 -8.8 0zM1860.06 934.23L1861.01 936.53L1876.16 930.25L1875.21 927.95zM1871.28 929.1 a4.4 4.4 0 1 0 8.8 0 a4.4 4.4 0 1 0 -8.8 0zM1769.24 953.53 a47.46 47.46 0 1 0 94.92 0 a47.46 47.46 0 1 0 -94.92 0z" fill="rgba(128, 189, 184, 1)"></path><path d="M1863.31 944.62 A46.462399999999995 46.462399999999995 0 0 1 1801.21 998.4M1801.21 998.4 A94.92479999999999 94.92479999999999 0 0 0 1863.31 944.62" fill="#57a7a0" fill-rule="nonzero"></path><path d="M1786.94 961.78 a9.49 9.49 0 1 0 18.98 0 a9.49 9.49 0 1 0 -18.98 0zM1794.94 921.3 a9.49 9.49 0 1 0 18.98 0 a9.49 9.49 0 1 0 -18.98 0zM1841.04 986.67 a3.8 3.8 0 1 0 7.6 0 a3.8 3.8 0 1 0 -7.6 0zM1827.34 991.61 a2.37 2.37 0 1 0 4.74 0 a2.37 2.37 0 1 0 -4.74 0zM1781.17 935.1 a4.27 4.27 0 1 0 8.54 0 a4.27 4.27 0 1 0 -8.54 0zM1827.69 926.78 a9.49 9.49 0 1 0 18.98 0 a9.49 9.49 0 1 0 -18.98 0zM1823.37 964.77 a9.49 9.49 0 1 0 18.98 0 a9.49 9.49 0 1 0 -18.98 0zM1812.55 978.09 a2.85 2.85 0 1 0 5.7 0 a2.85 2.85 0 1 0 -5.7 0zM1793.29 991.56 a4.75 4.75 0 1 0 9.5 0 a4.75 4.75 0 1 0 -9.5 0zM1778.03 979.52 a2.85 2.85 0 1 0 5.7 0 a2.85 2.85 0 1 0 -5.7 0z" fill="#57a7a0" fill-rule="nonzero"></path><path d="M1515.55 191.66L1515.55 196.63L1548.38 196.63L1548.38 191.66zM1539.58 194.15 a8.8 8.8 0 1 0 17.6 0 a8.8 8.8 0 1 0 -17.6 0zM1509.28 228.17L1507.38 232.76L1544.19 248.01L1546.09 243.42zM1536.34 245.71 a8.8 8.8 0 1 0 17.6 0 a8.8 8.8 0 1 0 -17.6 0zM1489.51 259.49L1486 263L1501.76 278.77L1505.28 275.25zM1494.72 277.01 a8.8 8.8 0 1 0 17.6 0 a8.8 8.8 0 1 0 -17.6 0zM1459.27 280.87L1454.68 282.77L1470.89 321.91L1475.48 320.01zM1464.39 320.96 a8.8 8.8 0 1 0 17.6 0 a8.8 8.8 0 1 0 -17.6 0zM1423.14 289.04L1418.17 289.04L1418.17 313.25L1423.14 313.25zM1411.86 313.25 a8.8 8.8 0 1 0 17.6 0 a8.8 8.8 0 1 0 -17.6 0zM1386.64 282.77L1382.05 280.87L1372.91 302.93L1377.5 304.83zM1366.41 303.88 a8.8 8.8 0 1 0 17.6 0 a8.8 8.8 0 1 0 -17.6 0zM1355.32 263L1351.8 259.49L1328.41 282.88L1331.93 286.4zM1321.37 284.64 a8.8 8.8 0 1 0 17.6 0 a8.8 8.8 0 1 0 -17.6 0zM1333.94 232.76L1332.04 228.17L1317.66 234.12L1319.56 238.71zM1309.81 236.42 a8.8 8.8 0 1 0 17.6 0 a8.8 8.8 0 1 0 -17.6 0zM1325.77 196.63L1325.77 191.66L1306.09 191.66L1306.09 196.63zM1297.29 194.15 a8.8 8.8 0 1 0 17.6 0 a8.8 8.8 0 1 0 -17.6 0zM1332.04 160.13L1333.94 155.54L1295.8 139.74L1293.9 144.33zM1286.05 142.04 a8.8 8.8 0 1 0 17.6 0 a8.8 8.8 0 1 0 -17.6 0zM1351.8 128.81L1355.32 125.29L1332.96 102.93L1329.44 106.45zM1322.4 104.69 a8.8 8.8 0 1 0 17.6 0 a8.8 8.8 0 1 0 -17.6 0zM1382.05 107.43L1386.64 105.53L1377.1 82.49L1372.5 84.39zM1366 83.44 a8.8 8.8 0 1 0 17.6 0 a8.8 8.8 0 1 0 -17.6 0zM1418.17 99.26L1423.14 99.26L1423.14 59.69L1418.17 59.69zM1411.86 59.69 a8.8 8.8 0 1 0 17.6 0 a8.8 8.8 0 1 0 -17.6 0zM1454.68 105.53L1459.27 107.43L1465.52 92.33L1460.93 90.43zM1454.42 91.38 a8.8 8.8 0 1 0 17.6 0 a8.8 8.8 0 1 0 -17.6 0zM1486 125.29L1489.51 128.81L1520.07 98.25L1516.55 94.74zM1509.51 96.5 a8.8 8.8 0 1 0 17.6 0 a8.8 8.8 0 1 0 -17.6 0zM1507.38 155.54L1509.28 160.13L1531.4 150.97L1529.49 146.38zM1521.64 148.67 a8.8 8.8 0 1 0 17.6 0 a8.8 8.8 0 1 0 -17.6 0zM1325.74 194.15 a94.92 94.92 0 1 0 189.84 0 a94.92 94.92 0 1 0 -189.84 0z" fill="rgba(128, 189, 184, 1)"></path><path d="M1382.41 281.03 A93.92479999999999 93.92479999999999 0 0 1 1364.38 117.7M1364.38 117.7 A189.84959999999998 189.84959999999998 0 0 0 1382.41 281.03" fill="#57a7a0" fill-rule="nonzero"></path><path d="M1425.38 281.44 a6.64 6.64 0 1 0 13.28 0 a6.64 6.64 0 1 0 -13.28 0zM1351.78 134.05 a12.34 12.34 0 1 0 24.68 0 a12.34 12.34 0 1 0 -24.68 0zM1487.15 180.14 a13.29 13.29 0 1 0 26.58 0 a13.29 13.29 0 1 0 -26.58 0zM1380.22 166.56 a10.44 10.44 0 1 0 20.88 0 a10.44 10.44 0 1 0 -20.88 0zM1363.83 264.11 a11.39 11.39 0 1 0 22.78 0 a11.39 11.39 0 1 0 -22.78 0zM1444.02 239.2 a18.98 18.98 0 1 0 37.96 0 a18.98 18.98 0 1 0 -37.96 0zM1404.07 137.11 a3.8 3.8 0 1 0 7.6 0 a3.8 3.8 0 1 0 -7.6 0zM1416.62 111.92 a6.64 6.64 0 1 0 13.28 0 a6.64 6.64 0 1 0 -13.28 0zM1372.1 206.48 a10.44 10.44 0 1 0 20.88 0 a10.44 10.44 0 1 0 -20.88 0zM1330.02 194.16 a12.34 12.34 0 1 0 24.68 0 a12.34 12.34 0 1 0 -24.68 0z" fill="#57a7a0" fill-rule="nonzero"></path><path d="M1401.72 558.02L1401.72 560.51L1424.93 560.51L1424.93 558.02zM1420.53 559.27 a4.4 4.4 0 1 0 8.8 0 a4.4 4.4 0 1 0 -8.8 0zM1398.58 576.28L1397.63 578.57L1409.08 583.31L1410.03 581.02zM1405.15 582.16 a4.4 4.4 0 1 0 8.8 0 a4.4 4.4 0 1 0 -8.8 0zM1388.7 591.94L1386.94 593.69L1395.24 601.99L1396.99 600.23zM1391.71 601.11 a4.4 4.4 0 1 0 8.8 0 a4.4 4.4 0 1 0 -8.8 0zM1373.58 602.63L1371.28 603.58L1378.6 621.24L1380.89 620.29zM1375.34 620.77 a4.4 4.4 0 1 0 8.8 0 a4.4 4.4 0 1 0 -8.8 0zM1355.51 606.71L1353.03 606.71L1353.03 621.92L1355.51 621.92zM1349.87 621.92 a4.4 4.4 0 1 0 8.8 0 a4.4 4.4 0 1 0 -8.8 0zM1337.26 603.58L1334.97 602.63L1328.34 618.63L1330.63 619.58zM1325.09 619.1 a4.4 4.4 0 1 0 8.8 0 a4.4 4.4 0 1 0 -8.8 0zM1321.6 593.69L1319.84 591.94L1312.86 598.92L1314.62 600.67zM1309.34 599.8 a4.4 4.4 0 1 0 8.8 0 a4.4 4.4 0 1 0 -8.8 0zM1310.91 578.57L1309.96 576.28L1288.52 585.16L1289.47 587.45zM1284.59 586.31 a4.4 4.4 0 1 0 8.8 0 a4.4 4.4 0 1 0 -8.8 0zM1306.82 560.51L1306.82 558.02L1290.94 558.02L1290.94 560.51zM1286.54 559.27 a4.4 4.4 0 1 0 8.8 0 a4.4 4.4 0 1 0 -8.8 0zM1309.96 542.26L1310.91 539.96L1295.16 533.44L1294.21 535.73zM1290.28 534.58 a4.4 4.4 0 1 0 8.8 0 a4.4 4.4 0 1 0 -8.8 0zM1319.84 526.6L1321.6 524.84L1310.86 514.1L1309.1 515.85zM1305.58 514.98 a4.4 4.4 0 1 0 8.8 0 a4.4 4.4 0 1 0 -8.8 0zM1334.97 515.91L1337.26 514.96L1331.26 500.46L1328.96 501.41zM1325.71 500.94 a4.4 4.4 0 1 0 8.8 0 a4.4 4.4 0 1 0 -8.8 0zM1353.03 511.82L1355.51 511.82L1355.51 489.37L1353.03 489.37zM1349.87 489.37 a4.4 4.4 0 1 0 8.8 0 a4.4 4.4 0 1 0 -8.8 0zM1371.28 514.96L1373.58 515.91L1382.02 495.53L1379.72 494.58zM1376.47 495.05 a4.4 4.4 0 1 0 8.8 0 a4.4 4.4 0 1 0 -8.8 0zM1386.94 524.84L1388.7 526.6L1404.62 510.67L1402.87 508.91zM1399.34 509.79 a4.4 4.4 0 1 0 8.8 0 a4.4 4.4 0 1 0 -8.8 0zM1397.63 539.96L1398.58 542.26L1414.13 535.82L1413.18 533.52zM1409.25 534.67 a4.4 4.4 0 1 0 8.8 0 a4.4 4.4 0 1 0 -8.8 0zM1306.81 559.27 a47.46 47.46 0 1 0 94.92 0 a47.46 47.46 0 1 0 -94.92 0z" fill="rgba(128, 189, 184, 1)"></path><path d="M1398.17 577.31 A46.462399999999995 46.462399999999995 0 0 1 1316.75 588.34M1316.75 588.34 A94.92479999999999 94.92479999999999 0 0 0 1398.17 577.31" fill="#57a7a0" fill-rule="nonzero"></path><path d="M1384.48 526.98 a1.9 1.9 0 1 0 3.8 0 a1.9 1.9 0 1 0 -3.8 0zM1328.48 564.31 a9.49 9.49 0 1 0 18.98 0 a9.49 9.49 0 1 0 -18.98 0zM1395.04 568.55 a2.85 2.85 0 1 0 5.7 0 a2.85 2.85 0 1 0 -5.7 0zM1320.87 536.84 a9.49 9.49 0 1 0 18.98 0 a9.49 9.49 0 1 0 -18.98 0zM1358.64 526.94 a8.07 8.07 0 1 0 16.14 0 a8.07 8.07 0 1 0 -16.14 0zM1368.89 573.67 a8.54 8.54 0 1 0 17.08 0 a8.54 8.54 0 1 0 -17.08 0zM1358.2 602.08 a3.8 3.8 0 1 0 7.6 0 a3.8 3.8 0 1 0 -7.6 0zM1334.4 600.27 a2.85 2.85 0 1 0 5.7 0 a2.85 2.85 0 1 0 -5.7 0zM1353.88 553.21 a1.9 1.9 0 1 0 3.8 0 a1.9 1.9 0 1 0 -3.8 0zM1310.58 568.78 a4.27 4.27 0 1 0 8.54 0 a4.27 4.27 0 1 0 -8.54 0z" fill="#57a7a0" fill-rule="nonzero"></path><path d="M202.9 997.12L202.9 999.61L220.03 999.61L220.03 997.12zM215.63 998.37 a4.4 4.4 0 1 0 8.8 0 a4.4 4.4 0 1 0 -8.8 0zM199.76 1015.38L198.81 1017.67L204.99 1020.23L205.95 1017.94zM201.07 1019.08 a4.4 4.4 0 1 0 8.8 0 a4.4 4.4 0 1 0 -8.8 0zM189.88 1031.04L188.13 1032.79L193.61 1038.28L195.37 1036.52zM190.09 1037.4 a4.4 4.4 0 1 0 8.8 0 a4.4 4.4 0 1 0 -8.8 0zM174.76 1041.73L172.46 1042.68L176.78 1053.1L179.08 1052.15zM173.53 1052.62 a4.4 4.4 0 1 0 8.8 0 a4.4 4.4 0 1 0 -8.8 0zM156.7 1045.81L154.21 1045.81L154.21 1068.99L156.7 1068.99zM151.05 1068.99 a4.4 4.4 0 1 0 8.8 0 a4.4 4.4 0 1 0 -8.8 0zM138.45 1042.68L136.15 1041.73L129.85 1056.94L132.14 1057.89zM126.6 1057.42 a4.4 4.4 0 1 0 8.8 0 a4.4 4.4 0 1 0 -8.8 0zM122.78 1032.79L121.03 1031.04L116.2 1035.87L117.95 1037.62zM112.68 1036.75 a4.4 4.4 0 1 0 8.8 0 a4.4 4.4 0 1 0 -8.8 0zM112.1 1017.67L111.14 1015.38L92.13 1023.25L93.08 1025.55zM88.21 1024.4 a4.4 4.4 0 1 0 8.8 0 a4.4 4.4 0 1 0 -8.8 0zM108.01 999.61L108.01 997.12L95.86 997.12L95.86 999.61zM91.46 998.37 a4.4 4.4 0 1 0 8.8 0 a4.4 4.4 0 1 0 -8.8 0zM111.14 981.36L112.1 979.06L101.22 974.56L100.27 976.85zM96.35 975.71 a4.4 4.4 0 1 0 8.8 0 a4.4 4.4 0 1 0 -8.8 0zM121.03 965.7L122.78 963.94L116.04 957.19L114.28 958.95zM110.76 958.07 a4.4 4.4 0 1 0 8.8 0 a4.4 4.4 0 1 0 -8.8 0zM136.15 955.01L138.45 954.06L134.66 944.93L132.37 945.88zM129.12 945.4 a4.4 4.4 0 1 0 8.8 0 a4.4 4.4 0 1 0 -8.8 0zM154.21 950.92L156.7 950.92L156.7 931.31L154.21 931.31zM151.05 931.31 a4.4 4.4 0 1 0 8.8 0 a4.4 4.4 0 1 0 -8.8 0zM172.46 954.06L174.76 955.01L183.14 934.76L180.85 933.81zM177.6 934.29 a4.4 4.4 0 1 0 8.8 0 a4.4 4.4 0 1 0 -8.8 0zM188.13 963.94L189.88 965.7L197.63 957.95L195.88 956.19zM192.35 957.07 a4.4 4.4 0 1 0 8.8 0 a4.4 4.4 0 1 0 -8.8 0zM198.81 979.06L199.76 981.36L214.33 975.33L213.37 973.03zM209.45 974.18 a4.4 4.4 0 1 0 8.8 0 a4.4 4.4 0 1 0 -8.8 0zM107.99 998.37 a47.46 47.46 0 1 0 94.92 0 a47.46 47.46 0 1 0 -94.92 0z" fill="rgba(128, 189, 184, 1)"></path><path d="M127.77 959.82 A46.462399999999995 46.462399999999995 0 0 1 202.67 993.56M202.67 993.56 A94.92479999999999 94.92479999999999 0 0 0 127.77 959.82" fill="#57a7a0" fill-rule="nonzero"></path><path d="M176.79 1000.32 a9.49 9.49 0 1 0 18.98 0 a9.49 9.49 0 1 0 -18.98 0zM129.76 975.5 a9.49 9.49 0 1 0 18.98 0 a9.49 9.49 0 1 0 -18.98 0zM138.69 1029.98 a9.49 9.49 0 1 0 18.98 0 a9.49 9.49 0 1 0 -18.98 0zM167.53 1030.26 a5.22 5.22 0 1 0 10.44 0 a5.22 5.22 0 1 0 -10.44 0zM110.66 1013.19 a2.85 2.85 0 1 0 5.7 0 a2.85 2.85 0 1 0 -5.7 0zM109.19 989.78 a3.32 3.32 0 1 0 6.64 0 a3.32 3.32 0 1 0 -6.64 0zM125.08 1006.99 a8.07 8.07 0 1 0 16.14 0 a8.07 8.07 0 1 0 -16.14 0zM161.83 996.55 a2.85 2.85 0 1 0 5.7 0 a2.85 2.85 0 1 0 -5.7 0zM153.82 961.38 a5.22 5.22 0 1 0 10.44 0 a5.22 5.22 0 1 0 -10.44 0zM118.07 1026.12 a1.9 1.9 0 1 0 3.8 0 a1.9 1.9 0 1 0 -3.8 0z" fill="#57a7a0" fill-rule="nonzero"></path></g><defs><mask id="SvgjsMask1015"><rect width="1920" height="1080" fill="#ffffff"></rect></mask></defs></svg>