<svg xmlns="http://www.w3.org/2000/svg" version="1.1" xmlns:xlink="http://www.w3.org/1999/xlink" xmlns:svgjs="http://svgjs.com/svgjs" width="1920" height="560" preserveAspectRatio="none" viewBox="0 0 1920 560"><g mask="url(&quot;#SvgjsMask1048&quot;)" fill="none"><path d="M 0,432 C 32,381.8 96,177.6 160,181 C 224,184.4 256,472.2 320,449 C 384,425.8 416,88.4 480,65 C 544,41.6 576,335.2 640,332 C 704,328.8 736,27.4 800,49 C 864,70.6 896,413 960,440 C 1024,467 1056,215.2 1120,184 C 1184,152.8 1216,289.6 1280,284 C 1344,278.4 1376,126.8 1440,156 C 1504,185.2 1536,436.8 1600,430 C 1664,423.2 1696,139 1760,122 C 1824,105 1888,300.4 1920,345L1920 560L0 560z" fill="rgba(7, 18, 17, 1)"></path></g><defs><mask id="SvgjsMask1048"><rect width="1920" height="560" fill="#ffffff"></rect></mask></defs></svg>